<?xml version="1.0" standalone="no"?>
<!DOCTYPE svg PUBLIC "-//W3C//DTD SVG 20010904//EN"
 "http://www.w3.org/TR/2001/REC-SVG-20010904/DTD/svg10.dtd">
<svg version="1.0" xmlns="http://www.w3.org/2000/svg"
 width="3000.000000pt" height="3000.000000pt" viewBox="0 0 3000.000000 3000.000000"
 preserveAspectRatio="xMidYMid meet">
<metadata>
Created by potrace 1.14, written by Peter Selinger 2001-2017
</metadata>
<g transform="translate(0.000000,3000.000000) scale(0.100000,-0.100000)"
fill="#000000" stroke="none">
<path d="M16328 29995 c-2 -2 -196 -6 -433 -10 -613 -9 -904 -15 -1460 -30
-180 -5 -498 -16 -600 -20 -55 -3 -158 -7 -230 -10 -297 -12 -775 -38 -940
-50 -71 -5 -198 -14 -310 -20 -44 -3 -107 -7 -140 -10 -65 -5 -167 -12 -315
-20 -52 -3 -120 -8 -151 -10 -31 -3 -121 -7 -200 -10 -299 -10 -549 -23 -739
-40 -61 -5 -85 -7 -212 -20 -54 -6 -90 -11 -143 -21 -40 -8 -188 -71 -246
-105 -26 -15 -73 -42 -105 -60 -104 -57 -801 -509 -887 -575 -14 -11 -35 -26
-47 -34 -64 -43 -386 -287 -469 -355 -65 -53 -178 -152 -196 -171 -92 -99
-141 -171 -190 -277 -18 -40 -36 -90 -40 -112 -5 -22 -9 -42 -10 -45 -2 -7
-14 -68 -20 -105 -15 -89 -20 -295 -19 -905 0 -371 2 -718 4 -770 l4 -96 -48
-44 c-162 -150 -273 -398 -625 -1402 -162 -462 -290 -802 -348 -925 -32 -68
-96 -164 -115 -171 -4 -2 -14 -9 -21 -16 -55 -52 -232 -129 -672 -291 -55 -20
-127 -47 -160 -60 -33 -12 -112 -42 -175 -65 -486 -178 -573 -236 -679 -455
-29 -61 -57 -119 -62 -130 -11 -26 -57 -182 -63 -215 -3 -14 -10 -50 -16 -80
-6 -30 -12 -66 -15 -80 -11 -70 -31 -247 -40 -355 -3 -33 -7 -78 -10 -101 -2
-22 -7 -88 -11 -145 -3 -57 -8 -126 -9 -154 -17 -257 -24 -1273 -12 -1652 7
-200 7 -203 -13 -203 -44 0 -188 66 -279 128 -418 283 -736 724 -1001 1390
-28 70 -55 136 -60 147 -5 11 -12 31 -15 45 -4 14 -13 39 -20 55 -12 26 -85
244 -92 270 -9 40 -102 373 -107 386 -4 9 11 41 40 85 173 258 246 576 192
844 -21 104 -59 194 -144 337 -54 90 -55 94 -43 130 16 49 14 81 -11 183 -12
47 -24 114 -28 150 -9 90 -8 380 3 525 10 142 10 409 1 480 -36 254 -120 434
-280 600 -50 51 -59 66 -85 153 -16 54 -31 106 -34 117 -3 11 -14 52 -25 90
-21 70 -32 130 -57 289 -4 21 -8 48 -11 59 -3 20 -7 42 -19 137 -23 178 -28
251 -29 445 -1 168 7 330 19 375 2 8 6 42 10 75 3 33 10 87 15 120 5 33 11 83
15 110 3 28 9 80 13 116 12 97 6 189 -17 273 -63 231 -237 359 -477 351 -233
-7 -437 -121 -573 -319 -104 -151 -203 -404 -240 -611 -6 -33 -13 -69 -15 -81
-40 -204 -52 -728 -22 -904 3 -14 14 -86 26 -160 12 -74 27 -160 35 -192 l13
-56 -57 20 c-121 42 -316 27 -466 -37 -168 -72 -304 -256 -349 -471 l-7 -32
-52 21 c-77 31 -246 30 -337 -2 -69 -25 -163 -71 -168 -83 -2 -5 -8 -8 -14 -8
-14 0 -134 -94 -183 -144 -105 -107 -159 -207 -191 -351 -11 -55 -10 -269 2
-340 7 -38 15 -86 19 -105 6 -39 53 -217 62 -240 3 -8 7 -19 8 -25 10 -44 87
-232 135 -330 81 -165 166 -292 268 -397 24 -25 46 -57 47 -70 14 -124 37
-246 70 -378 32 -127 87 -279 149 -413 20 -43 36 -80 36 -82 0 -16 170 -290
189 -305 4 -3 21 -23 38 -46 27 -34 33 -51 37 -110 2 -38 7 -76 10 -84 3 -8 8
-35 10 -60 18 -182 42 -278 108 -430 104 -240 264 -435 408 -497 86 -37 137
-47 265 -53 6 0 17 -27 23 -60 12 -55 44 -172 162 -595 186 -663 462 -1253
819 -1750 42 -58 38 -53 132 -170 99 -123 133 -160 281 -307 107 -107 279
-255 354 -306 11 -7 54 -37 97 -67 42 -30 82 -55 87 -55 6 0 10 -4 10 -10 0
-5 4 -10 9 -10 4 0 46 -22 92 -48 98 -56 217 -113 309 -149 36 -14 79 -31 95
-38 26 -11 160 -54 190 -61 6 -1 48 -11 95 -22 92 -23 124 -29 185 -38 22 -3
51 -7 65 -10 66 -12 91 -14 170 -19 47 -2 131 -5 188 -5 97 -1 102 -2 103 -23
1 -12 3 -31 4 -42 5 -40 17 -161 20 -202 2 -23 6 -61 9 -85 3 -24 8 -74 11
-113 4 -38 8 -81 10 -95 2 -14 7 -56 10 -95 3 -38 8 -81 10 -95 3 -14 7 -56
10 -95 4 -38 8 -81 10 -95 3 -14 7 -52 10 -85 6 -61 12 -113 20 -175 3 -19 7
-60 10 -90 3 -30 7 -71 9 -90 3 -19 8 -64 12 -100 3 -36 8 -76 9 -90 1 -14 6
-54 9 -90 3 -36 8 -81 11 -100 10 -79 15 -118 20 -180 3 -36 7 -76 10 -90 2
-14 7 -54 11 -90 3 -36 7 -72 9 -80 2 -9 7 -43 11 -75 4 -33 8 -62 9 -65 1 -3
5 -34 10 -70 5 -36 9 -67 10 -70 5 -16 19 -116 17 -123 -2 -9 16 -96 25 -117
3 -8 7 -20 8 -26 11 -51 109 -164 142 -164 7 0 13 -8 13 -17 4 -135 16 -419
25 -578 2 -44 7 -127 10 -185 3 -58 8 -141 11 -185 3 -44 7 -116 9 -160 2 -44
7 -120 10 -170 3 -49 7 -130 10 -180 3 -49 7 -126 10 -170 9 -124 22 -357 30
-510 2 -55 7 -136 10 -180 4 -44 8 -116 10 -160 6 -122 14 -254 19 -320 3 -33
8 -100 11 -150 7 -99 12 -164 20 -240 3 -27 7 -75 10 -105 15 -153 55 -271
120 -365 92 -131 218 -226 770 -584 22 -14 42 -28 45 -31 3 -3 21 -15 40 -27
19 -11 99 -61 177 -112 79 -50 145 -91 147 -91 3 0 42 -23 87 -51 46 -29 126
-76 179 -106 52 -29 102 -58 110 -63 26 -16 474 -266 490 -273 8 -4 38 -20 65
-35 111 -62 265 -144 670 -357 319 -169 865 -429 962 -459 48 -15 75 -18 313
-31 194 -11 666 -18 1313 -19 411 0 727 -5 727 -10 0 -27 -79 -237 -125 -333
-126 -264 -297 -451 -548 -599 -84 -50 -151 -78 -217 -90 -106 -20 -140 -24
-189 -24 -61 0 -181 19 -182 29 0 3 -2 15 -5 26 -2 11 -6 40 -9 65 -41 342
-186 546 -502 704 -160 80 -332 133 -491 151 -49 6 -202 7 -227 1 -11 -2 -49
-7 -85 -11 -54 -6 -146 -22 -220 -40 -152 -36 -363 -159 -489 -284 -68 -68
-161 -190 -161 -211 0 -5 -4 -10 -9 -12 -14 -5 -97 -186 -136 -298 -44 -129
-92 -300 -109 -394 -3 -14 -7 -34 -10 -44 -3 -9 -7 -33 -10 -52 -2 -19 -7 -42
-10 -50 -2 -8 -7 -34 -10 -58 -3 -24 -12 -82 -20 -130 -8 -48 -18 -109 -21
-137 -4 -27 -8 -61 -10 -75 -1 -14 -6 -52 -9 -85 -4 -33 -9 -77 -12 -97 -3
-20 -7 -61 -9 -90 -2 -29 -6 -75 -9 -103 -11 -104 -20 -241 -32 -495 -14 -282
-7 -1036 11 -1220 2 -25 7 -88 11 -140 3 -52 8 -115 9 -140 2 -25 6 -70 9
-100 3 -30 8 -80 11 -110 3 -30 7 -71 10 -90 2 -19 7 -62 10 -95 3 -33 8 -73
10 -90 2 -16 7 -52 10 -80 3 -27 11 -81 16 -120 6 -38 12 -85 15 -104 2 -19 7
-48 10 -65 3 -17 7 -42 9 -56 3 -23 47 -284 61 -355 16 -89 75 -370 89 -430 9
-38 23 -97 30 -130 61 -274 199 -737 266 -893 11 -25 17 -47 15 -49 -3 -3 -20
-7 -38 -8 -82 -8 -148 -14 -218 -20 -82 -7 -100 -9 -210 -20 -41 -4 -88 -9
-105 -10 -16 -1 -61 -6 -100 -10 -38 -4 -81 -9 -95 -10 -14 -2 -52 -6 -85 -9
-33 -4 -76 -9 -95 -11 -19 -3 -57 -7 -85 -10 -27 -3 -99 -12 -160 -20 -60 -8
-132 -17 -160 -20 -27 -4 -61 -8 -75 -11 -14 -2 -44 -7 -66 -10 -23 -2 -50 -6
-60 -8 -17 -3 -39 -7 -139 -22 -67 -11 -96 -16 -240 -45 -167 -34 -167 -34
-212 -48 -18 -5 -33 -7 -33 -4 0 3 -7 -1 -17 -8 -9 -8 -19 -13 -22 -12 -26 11
-187 -65 -225 -105 -38 -40 -47 -71 -35 -115 28 -102 205 -165 677 -242 17 -3
44 -7 60 -10 15 -2 51 -7 80 -10 30 -2 57 -7 60 -9 4 -2 45 -7 92 -11 46 -3
87 -8 90 -10 3 -1 43 -6 90 -10 114 -10 222 -20 335 -30 17 -2 66 -6 110 -9
44 -4 96 -8 115 -11 19 -2 71 -7 115 -10 44 -3 94 -8 110 -10 27 -4 76 -8 250
-20 33 -3 92 -7 130 -10 132 -11 198 -15 294 -20 53 -3 125 -7 161 -9 107 -7
270 -17 355 -21 44 -2 134 -6 200 -10 127 -6 246 -11 465 -20 287 -12 360 -14
525 -20 94 -2 244 -7 335 -10 304 -10 715 -20 1220 -30 1296 -25 3603 -25
4970 0 587 11 1010 20 1350 30 571 16 804 23 975 30 61 2 189 7 285 10 96 3
225 8 285 10 61 3 169 7 240 10 203 8 361 15 475 20 58 3 155 7 215 10 141 7
279 14 380 20 44 2 130 7 190 10 61 3 139 8 175 10 36 2 112 6 170 9 58 4 130
8 160 10 30 3 105 8 165 11 61 3 130 8 155 10 57 4 231 16 290 20 88 5 246 17
285 20 22 2 74 7 115 10 41 3 98 7 125 10 28 2 82 6 120 10 39 3 97 8 130 11
33 3 80 7 105 8 54 5 172 16 220 21 19 3 67 7 105 11 39 4 81 8 95 9 14 2 59
6 100 9 41 4 86 9 100 11 14 2 48 7 75 10 28 3 70 7 95 11 25 3 65 7 90 10 25
2 61 6 80 9 19 3 71 10 115 16 83 11 99 13 230 30 44 5 94 12 110 15 17 3 41
7 55 9 70 10 117 18 135 21 11 3 38 7 60 10 22 3 60 9 85 14 25 5 56 12 70 14
91 15 165 30 228 47 40 10 80 20 90 22 21 4 118 35 152 49 66 27 94 45 126 80
46 51 45 104 -1 154 -52 55 -208 113 -405 150 -14 3 -44 9 -68 15 -24 5 -60
11 -80 14 -20 3 -48 7 -62 10 -14 3 -59 10 -100 16 -41 5 -88 13 -105 15 -16
3 -50 7 -75 10 -25 2 -56 6 -70 9 -14 2 -50 7 -80 11 -30 3 -71 8 -90 10 -19
2 -42 5 -50 5 -14 1 -114 12 -230 24 -25 3 -72 7 -105 10 -33 3 -78 7 -100 9
-22 2 -80 7 -130 11 -49 3 -106 8 -125 10 -19 2 -75 7 -125 10 -49 3 -110 8
-135 10 -25 2 -94 7 -155 10 -60 4 -130 8 -155 10 -25 2 -55 4 -67 4 -33 1
-28 12 25 51 25 19 155 143 287 275 242 242 273 274 400 420 39 44 75 84 81
90 6 5 33 37 60 70 27 33 55 66 61 73 7 7 34 41 60 75 26 34 50 64 53 67 4 3
36 46 73 95 36 50 73 98 81 107 9 10 16 21 16 24 0 5 37 57 63 89 18 22 123
187 192 300 208 342 407 751 530 1085 15 41 33 91 41 110 32 83 114 364 129
442 2 11 6 27 9 36 3 9 8 35 12 57 3 22 8 43 10 46 6 10 35 206 42 284 13 140
6 501 -11 590 -3 11 -8 43 -11 70 -11 73 -51 227 -90 346 -19 57 -37 122 -41
144 -14 93 -117 323 -207 460 -91 139 -228 265 -344 316 -47 21 -83 53 -84 75
0 6 -26 36 -57 66 -155 147 -373 247 -658 304 -11 2 -31 6 -45 9 -14 3 -45 8
-70 11 -25 2 -65 7 -90 10 -134 17 -311 9 -483 -22 -110 -19 -367 -93 -432
-124 -11 -5 -49 -21 -85 -36 -63 -25 -228 -109 -282 -142 -14 -10 -50 -31 -80
-48 -100 -60 -331 -237 -503 -389 -129 -114 -387 -388 -475 -504 -14 -18 -30
-38 -36 -44 -85 -95 -320 -445 -498 -742 -75 -126 -141 -237 -146 -245 -5 -8
-33 -55 -61 -104 -180 -308 -188 -320 -195 -300 -4 10 -77 145 -162 299 -85
154 -168 305 -184 335 -16 30 -48 85 -69 123 -21 38 -39 71 -39 74 0 3 -8 17
-18 31 -11 15 -36 59 -57 97 -64 119 -115 209 -125 225 -6 8 -13 22 -17 30 -9
19 -140 250 -153 270 -6 8 -13 22 -17 30 -32 71 -478 820 -688 1155 -118 188
-414 641 -440 672 -5 7 -35 48 -65 92 -30 44 -106 151 -168 237 -62 86 -111
159 -108 161 7 7 54 14 211 29 33 3 71 7 85 10 29 5 81 11 160 19 30 3 69 7
85 9 17 2 62 7 100 11 39 3 86 8 106 11 20 2 56 6 80 9 42 4 100 11 179 20 19
3 62 7 95 10 33 2 71 7 85 10 14 2 54 7 90 10 36 3 81 8 100 10 19 3 60 7 90
10 30 4 84 10 120 15 36 4 72 8 80 8 15 0 76 7 155 17 22 3 56 7 75 10 19 2
55 6 80 9 108 12 247 28 270 31 47 7 125 16 170 20 51 4 130 13 177 20 17 3
73 9 125 15 51 6 104 12 118 15 22 3 79 10 180 20 19 2 49 6 65 9 17 3 56 8
88 11 32 4 67 8 77 10 10 2 47 6 82 10 96 9 188 20 348 41 121 16 139 19 235
35 93 16 94 16 205 39 58 12 141 31 185 42 44 11 89 22 100 25 26 6 37 9 55
16 8 3 38 13 66 22 61 19 156 74 193 113 76 78 138 199 156 304 3 18 8 40 10
48 4 15 16 132 21 205 13 203 19 518 19 1125 -1 651 -5 962 -21 1620 -9 344
-10 610 -4 663 5 35 14 55 39 79 32 31 63 89 75 140 18 78 21 212 21 1010 l0
867 55 6 c30 4 66 8 79 11 14 2 54 6 90 10 36 3 73 7 82 9 9 2 40 6 70 10 65
8 109 14 129 20 8 2 42 7 75 10 32 4 62 8 65 10 3 1 32 6 65 10 32 3 62 8 65
10 3 2 28 6 55 9 28 4 61 8 75 11 14 3 41 8 60 11 19 3 100 18 180 34 80 16
157 32 173 35 15 3 39 7 55 11 15 3 56 12 92 20 36 9 75 18 87 20 12 2 33 8
45 13 13 5 26 9 31 10 54 7 188 55 258 92 144 77 253 215 310 393 31 96 40
144 55 286 16 151 0 1367 -20 1521 -3 26 0 27 78 45 94 21 80 17 136 32 315
84 559 172 780 280 52 26 97 49 100 52 3 3 21 13 40 24 40 21 162 98 170 106
3 3 25 21 49 40 45 35 119 110 155 158 20 26 23 27 56 16 133 -46 369 52 534
220 203 208 289 446 302 841 6 164 6 164 75 235 24 25 76 81 114 124 39 43 77
86 86 95 17 17 174 201 205 240 10 13 26 31 35 40 20 21 186 231 270 341 35
47 66 87 69 90 3 3 10 12 15 21 6 9 46 68 90 130 361 511 649 1104 762 1569
14 58 27 115 29 128 2 12 6 34 9 50 26 142 26 404 0 577 -21 147 -91 347 -173
500 -44 82 -49 89 -119 180 -79 103 -140 165 -256 263 -226 191 -438 295 -742
367 -5 1 -21 5 -35 8 -14 4 -36 9 -50 11 -14 3 -50 9 -80 15 -30 6 -73 13 -95
16 -22 2 -49 7 -60 9 -12 2 -48 7 -80 11 -33 4 -71 8 -85 10 -25 4 -86 10
-192 20 -267 25 -949 25 -1238 0 -25 -2 -90 -6 -145 -9 -55 -4 -120 -8 -145
-10 -25 -3 -76 -7 -115 -11 -38 -3 -88 -8 -110 -11 -22 -2 -60 -6 -85 -9 -25
-2 -61 -6 -80 -9 -19 -3 -57 -8 -85 -11 -27 -3 -61 -8 -75 -10 -14 -2 -47 -6
-75 -10 -27 -3 -75 -10 -105 -15 -113 -19 -177 -28 -265 -34 -33 -3 -97 -8
-142 -11 l-83 -7 -1 34 c-1 18 -3 42 -4 53 -1 11 -5 49 -9 85 -12 116 -17 164
-22 205 -3 22 -7 72 -10 110 -2 39 -7 81 -9 95 -3 14 -7 54 -10 90 -3 36 -7
76 -10 90 -2 14 -7 61 -11 105 -3 44 -8 88 -10 98 -2 10 -6 48 -9 85 -4 37 -8
78 -10 92 -2 14 -6 54 -10 90 -6 65 -13 124 -20 170 -2 14 -6 57 -10 95 -3 39
-8 86 -10 105 -2 19 -7 62 -10 95 -3 33 -8 71 -10 85 -2 14 -6 57 -10 95 -7
82 -13 142 -20 205 -3 25 -8 65 -10 90 -2 25 -7 66 -10 93 -3 26 -7 70 -10 97
-14 136 -16 158 -20 190 -2 19 -7 64 -10 100 -3 36 -8 81 -11 100 -2 19 -6 60
-9 90 -2 30 -6 71 -9 90 -3 19 -8 67 -11 105 -3 39 -8 90 -11 115 -8 65 -12
107 -19 180 -4 36 -9 79 -11 95 -2 17 -6 55 -9 85 -3 30 -8 75 -11 100 -3 25
-7 65 -10 90 -2 25 -6 56 -8 70 -3 14 -8 43 -10 65 -17 132 -21 162 -52 330
-9 54 -34 148 -61 230 -52 162 -134 288 -271 416 -87 82 -189 130 -344 163
-12 3 -84 21 -158 40 -74 19 -147 37 -162 40 -15 2 -63 11 -105 20 -43 8 -95
18 -117 21 -21 3 -41 7 -45 9 -3 2 -37 7 -76 11 -38 4 -72 8 -75 10 -3 2 -34
6 -70 9 -36 4 -76 9 -90 11 -14 2 -52 7 -85 10 -33 3 -80 8 -105 11 -25 3 -65
7 -90 9 -25 1 -67 5 -95 9 -27 3 -79 8 -115 11 -36 2 -94 7 -130 10 -36 2 -96
7 -135 10 -38 3 -95 7 -125 10 -30 2 -102 7 -160 10 -58 3 -132 7 -165 10 -33
2 -114 7 -180 10 -66 3 -163 7 -215 10 -317 14 -764 28 -1275 39 -121 3 -344
8 -495 11 -151 4 -387 9 -525 11 -278 6 -3002 13 -3007 9z m11335 -7287 c-7
-12 -48 -61 -83 -98 -8 -8 -53 -60 -100 -115 -47 -55 -89 -105 -95 -111 -5 -6
-34 -39 -64 -72 l-53 -62 -28 20 c-32 23 -108 57 -148 66 -15 4 -66 8 -114 10
-132 5 -244 -34 -356 -123 l-42 -34 -28 33 c-56 68 -242 245 -272 260 -44 21
-31 27 106 43 22 3 50 7 64 10 27 5 63 11 125 20 23 3 52 7 65 10 13 3 42 7
65 10 50 8 162 25 195 30 14 2 45 6 70 9 37 4 221 29 368 51 17 3 49 7 70 11
20 3 62 9 92 14 30 6 75 13 100 16 25 3 47 8 49 10 10 10 21 3 14 -8z m-21043
-11754 c0 -8 -5 -12 -10 -9 -6 4 -8 11 -5 16 9 14 15 11 15 -7z m74 -15 c5 -5
-5 -4 -24 1 -18 5 -35 12 -39 16 -9 9 53 -7 63 -17z m10233 -2526 c2 -6 28
-47 57 -90 29 -43 113 -168 187 -278 74 -110 136 -204 139 -210 3 -5 32 -50
64 -100 91 -139 332 -534 416 -680 9 -16 53 -93 97 -170 107 -187 216 -383
293 -530 34 -66 78 -148 96 -182 44 -81 323 -638 362 -723 16 -36 56 -119 87
-185 84 -176 145 -306 145 -310 0 -2 20 -45 44 -97 35 -75 108 -242 225 -513
5 -11 16 -36 24 -55 9 -19 45 -111 82 -205 37 -93 73 -183 80 -200 21 -47 55
-143 80 -225 28 -91 28 -194 0 -255 -10 -22 -51 -98 -91 -170 -175 -316 -262
-545 -315 -830 -24 -131 -12 -404 25 -565 6 -27 19 -82 21 -90 12 -46 31 -101
61 -170 51 -121 64 -159 56 -163 -4 -2 -182 -3 -397 -1 -1432 10 -3160 -2
-4375 -31 -537 -13 -938 -24 -988 -28 -17 -2 -36 -1 -40 2 -4 3 -13 34 -20 69
-12 58 -50 142 -76 167 -6 6 -21 18 -34 26 -22 16 -22 21 -24 202 0 102 -4
209 -9 239 -4 29 -10 76 -13 105 -3 28 -8 57 -10 65 -3 7 -7 30 -10 50 -33
224 -174 584 -326 829 -47 75 -138 206 -165 235 -5 6 -23 29 -40 50 -47 61
-253 264 -330 325 -258 206 -535 351 -846 444 l-86 25 -1 88 c-4 608 -1 846
17 1092 1 13 14 15 76 12 199 -10 433 65 641 205 105 71 156 114 284 243 152
154 272 308 415 535 21 33 46 72 56 87 11 15 19 29 19 32 0 3 14 29 31 58 119
200 327 661 419 928 12 36 26 74 31 85 17 40 127 393 172 555 23 80 25 84 53
85 26 2 119 8 274 20 68 6 170 13 275 20 44 3 103 7 130 9 28 2 93 7 145 11
52 3 115 8 140 10 25 2 86 7 135 10 50 3 126 7 170 10 44 3 107 7 140 10 33 2
101 7 150 10 50 4 110 8 135 10 25 3 77 7 115 10 164 12 193 15 255 20 36 3
90 8 120 10 132 9 219 15 270 20 30 2 100 7 155 10 55 3 127 8 160 10 33 3 98
7 145 9 112 6 274 18 277 20 2 1 35 2 74 2 47 -1 74 -5 76 -13z"/>
</g>
</svg>
